<svg id="bikcraft" xmlns="http://www.w3.org/2000/svg" width="200" height="124" viewBox="0 0 200 124">
  <defs>
    <style>
      .cls-1 {
        fill: #fec63e;
      }
    </style>
  </defs>
  <path id="Path_6" data-name="Path 6" class="cls-1" d="M9.25,10.187c3.127-.124,10.755-.374,14.633-1.25-.126,1.626-.376,6.625-.376,16.123v4.249c3.5-2.875,6.379-4.375,9.881-4.375a10.3,10.3,0,0,1,9,4.625,19.6,19.6,0,0,1,2.5,10.124c0,11.622-5.5,18.247-16.634,18.247A20.991,20.991,0,0,1,19.505,55.8C18,56.3,16,57.3,14,57.93l-.626-.376c.126-3.375.126-9.748.126-18.373v-16c0-4-.126-6.749-.25-9.122-.126-1.626-.5-1.876-4.252-1.876ZM28.259,55.554c4.252,0,6.253-5.125,6.253-14.623a20.63,20.63,0,0,0-1.751-9.248,4.51,4.51,0,0,0-4-2.5,5.76,5.76,0,0,0-4.628,2.749c-.624.876-.874,1.626-.874,11.5,0,8.124.376,8.374.876,9.374A4.5,4.5,0,0,0,28.259,55.554ZM66.778,57.18c-2.627,0-5.253-.252-9.38-.252-4.376,0-6.5.252-8.628.252V55.054c3.5-.126,4-.75,4.128-2.126.124-1.5.25-3.873.25-7.749v-8c0-3.249,0-5.873-.126-7s-.626-1.5-3.878-1.374V26.684c4.378-.374,9.631-.5,13.883-1.374-.126,1.626-.25,4.625-.25,11.5v8.624c0,4,.126,5.749.25,7.5s.626,2,3.752,2.374ZM57.4,10.813c3.254,0,5.128,1.876,5.128,5.249,0,2.875-2.127,4.875-5.379,4.875a4.66,4.66,0,0,1-4.876-4.875A4.955,4.955,0,0,1,57.4,10.813Zm12.632-.626a92.276,92.276,0,0,0,13.632-1.25q-.254,7.746-.252,15.5V40.057c2.377-.626,7.5-6.875,9.5-10.5.376-.75.376-1.126-.624-1.126l-2.751-.25V26.06c4.628.126,9.38-.126,14.133-.376v2.126c-3.5.376-4.878.626-6.255,1.75a58.5,58.5,0,0,0-6,6.249c1.5,3.125,7.756,14.623,10.131,17.747a3.487,3.487,0,0,0,3.127,1.5l1.749.126L106.3,57.3a92.767,92.767,0,0,0-13.883.75c-1.5-3.5-6-12-7.378-14.623-.75-1.374-1.127-1.874-1.627-1.75,0,5.125-.124,7.625.126,11.248.126,1.626.5,2.126,3.878,2.25V57.3c-2.377,0-4.878-.25-9-.25-4.878,0-7,.25-8.88.25V55.178c3.252-.124,3.752-.748,3.878-2,.124-1.5.248-4.749.248-11.248V25.81c0-5.125,0-9-.124-12.248q0-1.125-1.5-1.126H69.9ZM39.891,88.048c-2.127,6.749-6.253,10-13.132,10-5.879,0-9.631-1.626-12.256-5.125-2-2.624-3-6.5-3-10.872,0-9.624,5.879-17,16.634-17,6.5,0,11.255,3,11.255,7.875,0,3.373-2.751,4.747-5,4.747a5.678,5.678,0,0,1-2.5-.624,1.952,1.952,0,0,1-.876-2.25,18.815,18.815,0,0,0,.376-2.626c0-3.123-1.127-4.623-3.5-4.623-3.878,0-5.879,5.625-5.879,13.374,0,3.123.376,6.623,1.5,8.746,1.251,2.875,3.252,4.5,6.253,4.5,3.752,0,6.129-2.124,7.88-7Zm7.127-9.122a69.779,69.779,0,0,0-.376-8.75,1.317,1.317,0,0,0-1.5-1.248H42.89V66.8c3.752-.126,8.88-.376,12.506-1.5l.376.25c.25,1.5.5,5.125.626,7.375h.248c1.629-4.375,3.878-7.875,8.506-7.875a4.711,4.711,0,0,1,4.628,5c0,4.125-3.127,5.375-4.378,5.375a2.422,2.422,0,0,1-2.5-1.252c-.624-1.374-1-2.124-2.249-2.124-1.377,0-2.127,1.25-3,3.249a13.261,13.261,0,0,0-.626,4.5c0,7.125,0,11.124.126,12.874s.748,2.248,5.751,2.374l-.124,2.126c-3.5-.126-6.629-.252-10.255-.252-3.752,0-6.5.126-9.631.252l.374-2.126c3-.126,3.752-.5,3.752-1.75.126-1.75.25-5.125.25-9V78.924h-.25Zm42.4-5.749c0-3.751-1.253-5.751-3.754-5.751-2.875,0-4.25,1.626-4.25,4.625a13.942,13.942,0,0,0,.248,2.376A1.78,1.78,0,0,1,80.91,76.3a6.838,6.838,0,0,1-3.5,1.126c-2.377,0-4.378-1.128-4.378-3.875,0-4,5.879-8.5,14.133-8.5,6.751,0,9.753,2.749,10.879,4.5a6.277,6.277,0,0,1,1,3.375V91.3c0,2.126.626,2.626,1.377,2.626,1,0,2.125-1.626,2.625-4.375l2.127,1c-1.127,5.375-4.378,7.625-8.88,7.625-3.878,0-6-1.626-6.629-4.875-3,3-6.127,4.875-9.378,4.875-5.253,0-8.754-3.5-8.754-9.25,0-3.5,1.5-5.5,4.128-6.623,4.25-1.876,10.629-3.749,13.755-6V73.175Zm-7.88,13.871c0,2.749,1.127,5.749,3.878,5.749,2,0,2.875-1.25,3.5-2.5a9.279,9.279,0,0,0,.374-3V78.8c-1.377.876-3.5,1.876-5.128,2.875C82.659,82.675,81.535,83.923,81.535,87.049ZM106.3,66.178l4,.124v-2c.126-5.249,1.377-9.124,4.128-11.874a12.363,12.363,0,0,1,9.128-3.749c5.128,0,7.88,2.5,7.88,5.749,0,2.376-2,4-4.754,4a2.362,2.362,0,0,1-2.5-2.5c0-2.624-.374-4.747-2.249-4.747-1.253,0-2,1.124-2.253,3.249-.248,2,.126,5.749.376,11.622h6.129l-.376,2.5-5.753.376c-.126,2.374-.126,6.5-.126,11.372,0,4.625,0,8.748.126,12,.126,1.626.376,2.25,1.751,2.376a33.365,33.365,0,0,0,3.378.248l-.254,2.126c-2.375,0-6.127-.25-9.378-.25-3.378,0-7.38.25-9.631.25l.126-2.126c3.252-.124,3.752-.5,3.878-1.874.248-2.126.248-5.375.248-9.748V68.8l-4.25-.25.374-2.376Z" transform="translate(9.009 8.946)"/>
  <path id="Path_7" data-name="Path 7" class="cls-1" d="M89.886,43.131l-.252,2.375-7.628.5c0,2.627-.126,6.5-.126,11.756,0,5.5,0,9.254.252,11.505.124,1.627.748,2.377,2,2.377,2.625,0,4.25-2.877,4.876-5.5h1l.876,2.875c-1.5,3.628-5.255,6.129-10.757,6.129-3,0-5.627-1-6.877-2.5A6.89,6.89,0,0,1,72,68.143c0-5.128.25-16.634.25-22.137l-4-.376.25-2.375h3.752c.126-2.377.126-5.128.126-7.63A34.563,34.563,0,0,0,81.756,32l.75.126q-.328,5.559-.376,11.129h7.756v-.126Z" transform="translate(68.242 31.971)"/>
  <path id="Path_8" data-name="Path 8" class="cls-1" d="M190,10V114H10V10ZM200,0H0V124H200Z"/>
</svg>
